<svg xmlns="http://www.w3.org/2000/svg" xmlns:xlink="http://www.w3.org/1999/xlink" viewBox="0 0 786.28 585.78"><defs><style>.cls-1,.cls-9{fill:none;}.cls-1,.cls-10{stroke:#39685c;stroke-miterlimit:10;}.cls-2{clip-path:url(#clip-path);}.cls-3{fill:url(#linear-gradient);}.cls-4{clip-path:url(#clip-path-2);}.cls-5{fill:url(#linear-gradient-2);}.cls-6{clip-path:url(#clip-path-3);}.cls-7{fill:url(#linear-gradient-3);}.cls-8{fill:#fff;}.cls-10{fill:url(#linear-gradient-4);}.cls-11{fill:#ffd800;}</style><clipPath id="clip-path" transform="translate(0 56.3)"><path class="cls-1" d="M375.2,54.14c0,23.2,18.32,42,40.92,42S457,77.34,457,54.14s-18.32-42-40.91-42-40.92,18.81-40.92,42"/></clipPath><linearGradient id="linear-gradient" x1="-3059.14" y1="2490.26" x2="-3057.36" y2="2490.26" gradientTransform="matrix(-292.66, 0, 0, 292.66, -894740.39, -728749.28)" gradientUnits="userSpaceOnUse"><stop offset="0" stop-color="#f7971d"/><stop offset="0.07" stop-color="#f7971d"/><stop offset="0.45" stop-color="#ffe72c"/><stop offset="0.64" stop-color="#ffe52d"/><stop offset="0.71" stop-color="#fede30"/><stop offset="0.76" stop-color="#fdd335"/><stop offset="0.8" stop-color="#fbc23c"/><stop offset="0.83" stop-color="#f9ac46"/><stop offset="0.86" stop-color="#f69251"/><stop offset="1" stop-color="#f69251"/></linearGradient><clipPath id="clip-path-2" transform="translate(0 56.3)"><path class="cls-1" d="M273.17,67.66c74.45,0,126.13,117.51,168.45,117.51,48.88,0,101.51-61.11,101.51-63.38,0,0-38.39,36-83.5,36-50.67,0-93.45-92.94-161.79-92.94A99.58,99.58,0,0,0,273.17,67.66Z"/></clipPath><linearGradient id="linear-gradient-2" x1="-3059.12" y1="2490.37" x2="-3057.33" y2="2490.37" gradientTransform="matrix(-292.66, 0, 0, 292.66, -894721.88, -728712.76)" xlink:href="#linear-gradient"/><clipPath id="clip-path-3" transform="translate(0 56.3)"><path class="cls-1" d="M102.15,36c11.58,0,87.93-14,132.58-13.8,60.66.33,91.49,24.44,91.49,24.44S322.89.5,252.5.5,102.15,36,102.15,36Z"/></clipPath><linearGradient id="linear-gradient-3" x1="-3059.12" y1="2490.09" x2="-3057.31" y2="2490.09" gradientTransform="matrix(-282.2, 77.55, 77.55, 282.2, -1055871.34, -465467.61)" xlink:href="#linear-gradient"/><linearGradient id="linear-gradient-4" x1="12.46" y1="283.93" x2="350.68" y2="160.83" gradientTransform="matrix(1, 0, 0, 1, 0, 0)" xlink:href="#linear-gradient"/></defs><g id="Layer_2" data-name="Layer 2"><g id="Layer_1-2" data-name="Layer 1"><g class="cls-2"><rect class="cls-3" x="365.54" y="2.79" width="101.16" height="102.69" transform="translate(0.53 168.5) rotate(-15.37)"/></g><path class="cls-1" d="M375.2,54.14c0,23.2,18.32,42,40.92,42S457,77.34,457,54.14s-18.32-42-40.91-42-40.92,18.81-40.92,42" transform="translate(0 56.3)"/><g class="cls-4"><rect class="cls-5" x="257.74" y="29.28" width="296.54" height="189.52" transform="translate(-18.35 168.32) rotate(-15.37)"/></g><path class="cls-1" d="M273.17,67.66c74.45,0,126.13,117.51,168.45,117.51,48.88,0,101.51-61.11,101.51-63.38,0,0-38.39,36-83.5,36-50.67,0-93.45-92.94-161.79-92.94A99.58,99.58,0,0,0,273.17,67.66Z" transform="translate(0 56.3)"/><g class="cls-6"><polygon class="cls-7" points="336.67 101.12 117.88 164.94 91.71 63.82 310.49 0 336.67 101.12"/></g><path class="cls-1" d="M102.15,36c11.58,0,87.93-14,132.58-13.8,60.66.33,91.49,24.44,91.49,24.44S322.89.5,252.5.5,102.15,36,102.15,36Z" transform="translate(0 56.3)"/><path class="cls-8" d="M786.28,348.26q0,6.64-4.18,14.8t-13.19,15.22q-12.23,8.81-22.41,16.08T725.7,408A227.37,227.37,0,0,1,703,419.78,215,215,0,0,1,674.56,430a93.5,93.5,0,0,1-10.19,2.58,46.77,46.77,0,0,1-8.47.85q-11.37,0-16.62-6.32T634,409.38c0-1,0-2,.11-2.9s.18-2,.32-3.11A49.24,49.24,0,0,1,638,388.79a162.75,162.75,0,0,1,7.51-16.3q4.39-8.36,9.33-16.62t9.11-15.65q4.18-7.39,7-13.19t2.79-9.44a8.38,8.38,0,0,0-1.83-5.46,6.57,6.57,0,0,0-5.46-2.26A46.52,46.52,0,0,0,640.35,318a121,121,0,0,0-23.05,20.05,232.13,232.13,0,0,0-19.73,25.2q-9,13.31-15.87,23.8a131,131,0,0,0-7.83,15.12q-3.52,8-7.39,15a48,48,0,0,1-8.69,11.58,16.83,16.83,0,0,1-12.12,4.61q-7.5,0-11.79-4.71a16.6,16.6,0,0,1-4.29-11.58,23,23,0,0,1,1-5.79c-2.38,1.56-4.77,3.06-7.19,4.5a163.5,163.5,0,0,1-26.16,12.76q-12.87,4.83-23.16,4.82t-16.73-5.79q-6.44-5.79-6.43-19.73a91.9,91.9,0,0,1,3.43-22.94,119.78,119.78,0,0,1-13.94,16.94,114.64,114.64,0,0,1-19.09,15.65,100.75,100.75,0,0,1-24,11.48,91.82,91.82,0,0,1-29,4.39,60.72,60.72,0,0,1-13.61-1.5,30.62,30.62,0,0,1-11.47-5.14,26.28,26.28,0,0,1-7.94-9.76c-.2-.4-.39-.82-.56-1.25a121.9,121.9,0,0,1-12.89,6.82q-21.12,9.54-40,9.55a50.12,50.12,0,0,1-28.52-8.8,93.81,93.81,0,0,1-23.8-23.8,194.18,194.18,0,0,1-19.52-35.06,393,393,0,0,1-15.65-42.35q-3.87,8.79-7.94,20.69t-8.79,24.55q-4.73,12.66-9.86,25a144.69,144.69,0,0,1-11.37,22.09,69.39,69.39,0,0,1-13.3,15.76,23.35,23.35,0,0,1-15.43,6A25.15,25.15,0,0,1,116.57,434a18,18,0,0,1-6.64-5.36,20.19,20.19,0,0,1-3.33-7.08,30.21,30.21,0,0,1-1-7.29,41.83,41.83,0,0,1,1.28-10.08,43.13,43.13,0,0,1,3.65-9.65l63.26-115.8q8.14-14.58,16.4-28.2t16.09-24.12a118.6,118.6,0,0,1,14.79-16.84q7-6.31,12.55-6.32a15.91,15.91,0,0,1,3.65.53,10,10,0,0,1,3.86,1.93,11.7,11.7,0,0,1,3,4.08,15.57,15.57,0,0,1,1.28,6.75q0,4.08-2.35,11.37t-6.22,16.72q-3.87,9.45-9,20.7t-10.72,23.05a16.63,16.63,0,0,0,2.68.21h2.89a80,80,0,0,0,35.28-8,108.54,108.54,0,0,0,12.89-7.32c18.68,0,87.71-26.86,90.47-70.36.08,1.54.11,3.09.11,4.67A76,76,0,0,1,356,236.21a106,106,0,0,1-14.69,25.52,132.52,132.52,0,0,1-21.55,21.88,182.69,182.69,0,0,1-26.27,17.69,202.71,202.71,0,0,1-28.63,13.08,164.14,164.14,0,0,1-28.41,7.72,159.74,159.74,0,0,0,6.32,22.62,148.82,148.82,0,0,0,10.73,23.8,91.75,91.75,0,0,0,14,19.2q7.72,7.93,16.3,8.57a24.66,24.66,0,0,0,3.22.22h3a71.33,71.33,0,0,0,27.88-5.15,96.77,96.77,0,0,0,18.76-10.17c.59-1.87,1.24-3.88,2-6q4.62-13.6,14.27-35.27t27.23-52.54q4.5-8.14,10.4-11.69a24.34,24.34,0,0,1,12.76-3.54,27.42,27.42,0,0,1,6.22.75,22.34,22.34,0,0,1,6,2.36,13.77,13.77,0,0,1,4.51,4.08,9.7,9.7,0,0,1,1.71,5.68,12.71,12.71,0,0,1-.64,4.07,44.41,44.41,0,0,1-4.61,9.55q-3.54,5.89-8.26,13.51t-10,16.4q-5.25,8.79-9.76,18.23A164.66,164.66,0,0,0,380.81,366a71.06,71.06,0,0,0-3.64,19,12.51,12.51,0,0,0,2.14,7.08q2.15,3.21,7.08,3.21A50.26,50.26,0,0,0,413,387.5a111.24,111.24,0,0,0,23.37-19.19,185.41,185.41,0,0,0,19.41-24.66q8.69-13.18,14.48-24.13a111.66,111.66,0,0,0,7.18-15.65,140.37,140.37,0,0,1,6.75-15.44,46.59,46.59,0,0,1,8.37-11.79,16,16,0,0,1,11.79-4.72q7.73,0,12.23,4.93a16.9,16.9,0,0,1,4.5,11.79q0,3.87-2.9,10.62t-7.29,15.44q-4.39,8.69-9.54,18.55t-9.54,20.05a179,179,0,0,0-7.29,19.94,64,64,0,0,0-2.9,18.12q0,7.72,9.44,7.72,6.65,0,16.51-3.86a117.94,117.94,0,0,0,20.69-10.83A182.67,182.67,0,0,0,548,369.66q1.45-3.09,3-6.28,5.9-12.33,11.79-24.45T574,316.09q5.35-10.71,8.79-18.22,4.29-9.22,10.73-13.73t12.65-4.5a13.26,13.26,0,0,1,9.22,3.75c2.71,2.5,4.07,6.19,4.07,11a29.58,29.58,0,0,1-3,12.87A66.53,66.53,0,0,1,630,295a125.1,125.1,0,0,1,19.41-11.36,141.11,141.11,0,0,1,21.87-8.26,77.58,77.58,0,0,1,21.34-3.22q11.35,0,19,5.47t7.61,18.55a59.23,59.23,0,0,1-2.36,16.08A121.19,121.19,0,0,1,710.69,329q-3.75,8.37-8.36,16.4t-9.12,15.12q-4.5,7.08-8.25,13t-5.9,9.75a12.24,12.24,0,0,0-2.79,7.94,4.58,4.58,0,0,0,1.07,3,4.22,4.22,0,0,0,3.43,1.29,21.55,21.55,0,0,0,3.43-.32,12.59,12.59,0,0,0,4.72-2.26,193.9,193.9,0,0,0,23.7-10.72q12.11-6.43,23.27-13.62t20.47-14.36q9.33-7.19,15.55-13a11.32,11.32,0,0,1,3.43-2.14,9.2,9.2,0,0,1,3.22-.64,6.65,6.65,0,0,1,5.68,2.78A11.68,11.68,0,0,1,786.28,348.26Z" transform="translate(0 56.3)"/><path class="cls-9" d="M287.06,260.12a100.12,100.12,0,0,1-15,12.37c5.23-3.76,27.3-20.77,37-47.16h0l.81-.44c-.9,2.51-1.95,5-3.15,7.58A98.25,98.25,0,0,1,287.06,260.12Z" transform="translate(0 56.3)"/><path class="cls-9" d="M361.35,196.49v6.43c-.09-2.1-.24-4.16-.47-6.18Z" transform="translate(0 56.3)"/><path class="cls-10" d="M361,201.08c0,45.08-71.51,73-90.56,73,0,0,42.72-28.21,42.72-73.3,0-18.42-25.67-31.56-64.33-31.56-92,0-246.67,86.45-246.67,86.45S113.3,125.5,249.3,125.5C306.19,125.5,361,149.1,361,201.08Z" transform="translate(0 56.3)"/><path class="cls-11" d="M133.57,464.61a19,19,0,0,1,8.48,5.77,13.69,13.69,0,0,1,3,8.8,14,14,0,0,1-3,9,15.29,15.29,0,0,1-8.29,5.25,16.09,16.09,0,0,1,9.88,5.71A16.8,16.8,0,0,1,147.2,510a15.81,15.81,0,0,1-3.09,9.69,19.16,19.16,0,0,1-8.81,6.37,37.09,37.09,0,0,1-13.39,2.21H89.5V462.6h31.19A37.38,37.38,0,0,1,133.57,464.61ZM125.37,487a6,6,0,0,0,2.06-4.82,5.59,5.59,0,0,0-2.06-4.64,8.44,8.44,0,0,0-5.62-1.55H106.64v12.74h13.11A8.43,8.43,0,0,0,125.37,487Zm1.5,26.09a6.08,6.08,0,0,0,2.62-5.25,5.67,5.67,0,0,0-2.62-4.91,11.82,11.82,0,0,0-7.12-1.74H106.64V515h13.11A12,12,0,0,0,126.87,513.09Z" transform="translate(0 56.3)"/><path class="cls-11" d="M204.81,528.27l-4.5-11.62H171.93l-4.59,11.62H149.73l28.19-65.67h17.61l27.54,65.67Zm-27.73-24.73h18.17l-9-23.42Z" transform="translate(0 56.3)"/><path class="cls-11" d="M268.41,528.27l-9.55-18.18H246.12v18.18H229V462.6h29.51q13,0,20.19,6t7.16,17a26,26,0,0,1-3,12.79,20.7,20.7,0,0,1-8.72,8.38l13.68,21.46Zm-22.29-31.85h12.45q5.25,0,8.11-2.63t2.85-7.58q0-4.79-2.85-7.36t-8.11-2.57H246.12Z" transform="translate(0 56.3)"/><path class="cls-11" d="M341.66,462.6h15.93v65.67h-15L312.81,489v39.25h-16V462.6h15.08l29.89,39.53Z" transform="translate(0 56.3)"/><path class="cls-11" d="M404.47,477.31a32.73,32.73,0,0,0-10-2,9.24,9.24,0,0,0-5,1.17,3.82,3.82,0,0,0-1.82,3.42,4.69,4.69,0,0,0,1.59,3.61,12.24,12.24,0,0,0,3.93,2.34c1.56.59,3.87,1.36,6.94,2.29a90.06,90.06,0,0,1,11.28,3.94,19.73,19.73,0,0,1,7.64,6q3.18,4.08,3.18,10.63a18.2,18.2,0,0,1-3.46,11.2,21,21,0,0,1-9.51,7,37,37,0,0,1-13.44,2.35,48.72,48.72,0,0,1-16.26-2.86,44.53,44.53,0,0,1-14-7.82l6.65-13.4A41.19,41.19,0,0,0,384,512.43a31.93,31.93,0,0,0,12,2.81,11.17,11.17,0,0,0,6.05-1.4,4.6,4.6,0,0,0,2.2-4.12A4.88,4.88,0,0,0,402.6,506a12.25,12.25,0,0,0-4.12-2.39q-2.49-.88-7-2.11a84.47,84.47,0,0,1-11.15-3.79,19.6,19.6,0,0,1-7.54-5.81q-3.13-3.89-3.14-10.35a18.11,18.11,0,0,1,3.23-10.68,20.66,20.66,0,0,1,9.18-7.07,35.77,35.77,0,0,1,13.82-2.48,50.23,50.23,0,0,1,14.05,2,46.51,46.51,0,0,1,12.18,5.39l-6.47,13.67A57.18,57.18,0,0,0,404.47,477.31Z" transform="translate(0 56.3)"/><path class="cls-11" d="M495.19,494.73H510v26.14a43.75,43.75,0,0,1-12.88,6.22,48.25,48.25,0,0,1-14.47,2.39A36.27,36.27,0,0,1,464.7,525a32.88,32.88,0,0,1-12.6-12.22,33.61,33.61,0,0,1-4.59-17.42,32.5,32.5,0,0,1,4.73-17.29,33.26,33.26,0,0,1,13-12.13,38.91,38.91,0,0,1,18.5-4.4,42.36,42.36,0,0,1,14.62,2.67,37.94,37.94,0,0,1,12.36,7.17l-9.74,12a27.38,27.38,0,0,0-8.2-5.34,23.27,23.27,0,0,0-9.13-2,18,18,0,0,0-16.11,9.46,19.92,19.92,0,0,0-2.44,9.84,20.34,20.34,0,0,0,2.44,10,17.88,17.88,0,0,0,6.74,7,18.49,18.49,0,0,0,9.56,2.53q5,0,11.33-3.19Z" transform="translate(0 56.3)"/><path class="cls-11" d="M560.76,528.27l-9.55-18.18H538.47v18.18H521.33V462.6h29.5q13,0,20.19,6t7.17,17a25.87,25.87,0,0,1-3,12.79,20.67,20.67,0,0,1-8.71,8.38l13.67,21.46Zm-22.29-31.85h12.46q5.24,0,8.1-2.63c1.9-1.74,2.86-4.27,2.86-7.58s-1-5.64-2.86-7.36-4.61-2.57-8.1-2.57H538.47Z" transform="translate(0 56.3)"/><path class="cls-11" d="M589.15,462.6H641v13.68H606.29v12.27h31.28v13.58l-31.28.09v12.37h35.59v13.68H589.15Z" transform="translate(0 56.3)"/><path class="cls-11" d="M652.37,462.6h51.81v13.68H669.52v12.27H700.8v13.58l-31.28.09v12.37h35.59v13.68H652.37Z" transform="translate(0 56.3)"/><path class="cls-11" d="M760.47,462.6H776.4v65.67h-15L731.62,489v39.25h-16V462.6h15.08l29.89,39.53Z" transform="translate(0 56.3)"/></g></g></svg>