<?xml version="1.0" encoding="UTF-8"?>
<svg id="Layer_2" data-name="Layer 2" xmlns="http://www.w3.org/2000/svg" xmlns:xlink="http://www.w3.org/1999/xlink" viewBox="0 0 434.38 440.35">
  <defs>
    <style>
      .cls-1 {
        fill: #fff;
      }

      .cls-2 {
        fill: #73279e;
      }

      .cls-3 {
        fill: url(#linear-gradient);
        stroke: #725b9f;
        stroke-miterlimit: 10;
        stroke-width: .5px;
      }

      .cls-4 {
        fill: none;
      }
    </style>
    <linearGradient id="linear-gradient" x1="17.03" y1="163.22" x2="247.87" y2="-4.5" gradientUnits="userSpaceOnUse">
      <stop offset="0" stop-color="#00a8de"/>
      <stop offset=".2" stop-color="#343390"/>
      <stop offset=".4" stop-color="#e81387"/>
      <stop offset=".6" stop-color="#ea2d2e"/>
      <stop offset=".8" stop-color="#fce82b"/>
      <stop offset="1" stop-color="#009d54"/>
    </linearGradient>
  </defs>
  <g id="Layer_1-2" data-name="Layer 1">
    <g>
      <path class="cls-2" d="m49.34,308.14v132.21h379.57v-36.18h0v-96.03H49.34Zm274.79,54.11c-14.83-4.83-20.7-10.56-20.7-19.82,0-12.61,9.26-22.24,27.92-22.24,16.93,0,27.4,7.83,27.63,21.31h-18.89c-.14-3.17-1.51-7.7-9.06-7.7-4.56,0-7.9,1.94-7.9,6.15,0,3.27,2.53,5.33,10.67,7.97,15.49,5.01,21.95,11.19,21.95,21.36,0,13.21-9.66,22.84-30.58,22.84-19.11,0-28.58-8.97-28.99-22.98h18.93c.47,5.6,3.97,9.47,11.18,9.47,5.74,0,9.21-1.99,9.21-6.99,0-4.46-3.18-6.69-11.37-9.37Zm-62-40.78c19.33,0,30.52,11.38,30.52,29.41,0,19.99-11.97,39.96-40.9,39.96h-29.52l14.71-69.37h25.19Zm-39.53,0l-14.7,69.37h-19.34l14.71-69.37h19.33Zm-88.62,0h19.13l-6.09,28.56c5.95-6.92,18.61-19.24,27.29-28.56h22.86l-31,29.26,17.56,40.11h-20.8l-11.42-28.81-8.49,7.05-4.54,21.76h-19.21l14.71-69.37Z"/>
      <path class="cls-2" d="m434.38,192.42c0,2.45-.77,5.17-2.31,8.18-1.54,3-3.97,5.8-7.29,8.41-4.5,3.24-8.63,6.21-12.38,8.89-3.75,2.69-7.58,5.2-11.49,7.53-3.91,2.33-8.1,4.5-12.56,6.52-4.46,2.01-9.7,3.89-15.7,5.63-2.06.64-3.93,1.11-5.63,1.43-1.7.31-3.26.47-4.68.47-4.19,0-7.25-1.17-9.18-3.49-1.94-2.33-2.91-5.59-2.91-9.78,0-.55.02-1.09.06-1.6s.1-1.08.18-1.72c.16-2.45.81-5.13,1.96-8.06,1.14-2.92,2.53-5.92,4.15-9.01,1.62-3.08,3.34-6.14,5.16-9.18,1.81-3.04,3.49-5.92,5.03-8.65,1.54-2.72,2.82-5.16,3.85-7.29,1.03-2.13,1.54-3.87,1.54-5.22,0-1.18-.34-2.19-1.01-3.02-.67-.83-1.67-1.25-3.02-1.25-5.06,0-9.86,1.5-14.4,4.5-4.54,3.01-8.79,6.7-12.74,11.08-3.95,4.39-7.59,9.03-10.9,13.93-3.32,4.9-6.24,9.28-8.77,13.15-1.58,2.61-3.02,5.39-4.33,8.36-1.3,2.96-2.66,5.73-4.08,8.29-1.43,2.57-3.02,4.7-4.8,6.4-1.78,1.7-4.01,2.55-6.7,2.55s-4.93-.87-6.51-2.6c-1.58-1.74-2.37-3.87-2.37-6.4,0-.78.19-1.85.56-3.2-1.32.86-2.64,1.69-3.97,2.49-4.9,2.92-9.72,5.27-14.46,7.05-4.74,1.78-9.01,2.66-12.8,2.66s-6.87-1.07-9.24-3.2c-2.37-2.13-3.55-5.76-3.55-10.9,0-3.63.63-7.86,1.9-12.68-2.06,3.08-4.63,6.2-7.7,9.36-3.08,3.16-6.6,6.05-10.55,8.65-3.95,2.61-8.37,4.72-13.27,6.34-4.9,1.62-10.23,2.43-16,2.43-2.6,0-5.11-.28-7.52-.83-2.41-.55-4.53-1.5-6.34-2.84-1.82-1.34-3.28-3.14-4.39-5.39-.11-.22-.22-.45-.31-.69-2.39,1.45-4.76,2.7-7.12,3.77-7.78,3.51-15.15,5.28-22.1,5.28-5.69,0-10.94-1.62-15.76-4.86-4.82-3.24-9.21-7.62-13.15-13.15-3.95-5.53-7.55-11.99-10.79-19.37-3.24-7.39-6.12-15.19-8.65-23.4-1.43,3.24-2.88,7.05-4.39,11.43-1.5,4.39-3.12,8.91-4.86,13.57-1.74,4.66-3.55,9.27-5.45,13.81-1.9,4.54-3.99,8.61-6.28,12.21-2.29,3.59-4.74,6.5-7.35,8.71-2.6,2.21-5.45,3.32-8.53,3.32-2.53,0-4.59-.4-6.17-1.18-1.58-.79-2.8-1.78-3.67-2.96-.87-1.19-1.48-2.49-1.84-3.91-.35-1.42-.53-2.76-.53-4.03,0-1.82.24-3.67.71-5.57.48-1.9,1.14-3.67,2.02-5.33l34.96-63.99c3-5.37,6.02-10.57,9.06-15.58,3.04-5.02,6.01-9.46,8.89-13.33,2.88-3.87,5.61-6.97,8.17-9.31,2.57-2.33,4.88-3.49,6.94-3.49.55,0,1.22.1,2.02.29.78.2,1.5.55,2.13,1.07.63.51,1.18,1.27,1.66,2.25.48.99.71,2.23.71,3.73s-.43,3.6-1.3,6.28c-.87,2.69-2.02,5.76-3.44,9.24-1.43,3.48-3.08,7.29-4.98,11.44-1.9,4.14-3.87,8.39-5.92,12.74.48.08.97.12,1.48.12h1.6c6.87,0,13.37-1.48,19.5-4.44,2.5-1.21,4.88-2.55,7.12-4.05,10.32,0,48.47-14.84,49.99-38.88.04.85.06,1.71.06,2.58,0,5.53-1.01,10.8-3.02,15.82-2.02,5.02-4.72,9.72-8.12,14.1-3.4,4.39-7.37,8.42-11.91,12.09-4.54,3.67-9.38,6.93-14.52,9.78-5.14,2.84-10.41,5.26-15.82,7.23-5.41,1.97-10.64,3.4-15.7,4.27.71,3.71,1.87,7.88,3.49,12.5,1.62,4.62,3.6,9.01,5.93,13.15,2.33,4.15,4.92,7.69,7.76,10.61,2.85,2.92,5.85,4.5,9.01,4.74.63.08,1.22.12,1.78.12h1.66c5.76,0,10.9-.95,15.41-2.85,4.07-1.71,7.52-3.59,10.37-5.62.33-1.03.69-2.14,1.09-3.33,1.7-5.01,4.33-11.51,7.89-19.49,3.55-7.98,8.57-17.66,15.05-29.03,1.66-3,3.58-5.16,5.75-6.46s4.52-1.96,7.05-1.96c1.11,0,2.25.14,3.44.41,1.18.28,2.29.71,3.32,1.3s1.86,1.34,2.49,2.25c.63.91.94,1.95.94,3.14,0,.79-.12,1.54-.35,2.25-.4,1.35-1.24,3.11-2.55,5.28-1.3,2.17-2.83,4.66-4.56,7.47-1.74,2.8-3.58,5.82-5.51,9.06-1.93,3.24-3.73,6.6-5.39,10.07-1.66,3.48-3.08,7.01-4.27,10.6-1.18,3.6-1.86,7.09-2.01,10.49,0,1.42.39,2.72,1.18,3.91.79,1.18,2.09,1.77,3.91,1.77,5.13,0,10.03-1.42,14.69-4.27,4.66-2.84,8.96-6.38,12.91-10.6,3.95-4.23,7.53-8.77,10.73-13.63,3.2-4.86,5.87-9.3,8-13.33,1.5-2.68,2.82-5.56,3.97-8.65,1.14-3.08,2.39-5.92,3.73-8.53,1.34-2.61,2.88-4.78,4.63-6.52,1.74-1.74,3.91-2.61,6.52-2.61,2.85,0,5.09.91,6.76,2.72,1.66,1.82,2.49,3.99,2.49,6.52,0,1.43-.54,3.38-1.6,5.87-1.07,2.49-2.41,5.33-4.03,8.53-1.62,3.2-3.38,6.61-5.27,10.25-1.9,3.64-3.65,7.33-5.27,11.08-1.62,3.75-2.96,7.43-4.03,11.02-1.07,3.6-1.6,6.94-1.6,10.01,0,2.85,1.74,4.27,5.22,4.27,2.45,0,5.49-.71,9.12-2.13,3.63-1.42,7.44-3.42,11.43-5.98,3.63-2.33,7.26-5.05,10.89-8.14.54-1.14,1.08-2.29,1.65-3.47,2.17-4.54,4.34-9.05,6.51-13.51,2.17-4.46,4.25-8.67,6.22-12.62,1.97-3.95,3.59-7.31,4.86-10.07,1.58-3.4,3.56-5.93,5.93-7.59,2.37-1.66,4.7-2.49,6.99-2.49,1.9,0,3.59.69,5.09,2.07,1.5,1.38,2.25,3.42,2.25,6.1,0,1.03-.12,2.13-.35,3.32-.24,1.18-.67,2.45-1.3,3.79,1.74-2.21,4.23-4.48,7.47-6.81,3.24-2.33,6.81-4.42,10.73-6.28,3.91-1.86,7.94-3.38,12.09-4.56,4.15-1.19,8.08-1.78,11.79-1.78,4.18,0,7.68,1.01,10.49,3.02,2.8,2.02,4.21,5.43,4.21,10.25,0,2.85-.44,5.81-1.3,8.89-.87,3.08-1.99,6.16-3.38,9.24-1.38,3.08-2.92,6.1-4.62,9.06-1.7,2.97-3.38,5.75-5.04,8.36-1.66,2.61-3.18,5-4.56,7.17-1.39,2.17-2.47,3.97-3.26,5.39-1.03,1.27-1.54,2.73-1.54,4.39,0,.63.2,1.18.59,1.66.4.48,1.03.71,1.9.71.55,0,1.19-.06,1.9-.18.71-.12,1.58-.54,2.61-1.25,4.27-1.57,8.63-3.55,13.1-5.92,4.46-2.37,8.75-4.87,12.86-7.53,4.11-2.64,7.88-5.29,11.31-7.94,3.44-2.65,6.3-5.04,8.59-7.17.63-.55,1.27-.94,1.9-1.18.64-.24,1.23-.35,1.78-.35,1.34,0,2.39.51,3.14,1.54.75,1.03,1.13,2.33,1.13,3.91Z"/>
      <path class="cls-4" d="m158.51,143.71c-2.53,2.53-5.3,4.82-8.31,6.84,2.89-2.08,15.09-11.48,20.44-26.06h0s.45-.25.45-.25c-.5,1.39-1.08,2.78-1.74,4.19-2.65,5.61-6.26,10.7-10.84,15.28Z"/>
      <path class="cls-4" d="m199.57,108.55v3.55c-.04-1.16-.13-2.3-.25-3.42l.25-.14Z"/>
      <path class="cls-3" d="m207.22,29.89c0-12.82,10.12-23.21,22.61-23.21s22.61,10.39,22.61,23.21-10.12,23.21-22.61,23.21-22.61-10.39-22.61-23.21m-42.75,5.91c37.77,0,61.4,51.36,89.4,51.36,24.93,0,46.15-19.88,46.15-19.88,0,1.25-29.08,35.02-56.1,35.02-23.38,0-51.94-64.93-93.08-64.93,0,0,5.53-1.56,13.63-1.56Zm-108.14-15.95c6.4,0,48.59-7.76,73.26-7.63,33.52.18,50.56,13.51,50.56,13.51,0,0-1.84-25.48-40.74-25.48S56.33,19.85,56.33,19.85Zm81.32,49.47C62.49,69.32,1.1,141.28,1.1,141.28c0,0,85.47-47.77,136.31-47.77,21.37,0,35.55,7.26,35.55,17.44,0,24.92-23.61,40.51-23.61,40.51,10.53,0,50.04-15.46,50.04-40.37,0-28.72-30.3-41.76-61.74-41.76Z"/>
      <g>
        <path d="m73.69,256.72c2.02.74,3.58,1.8,4.68,3.18,1.1,1.38,1.66,3,1.66,4.87s-.56,3.55-1.68,4.97c-1.12,1.42-2.65,2.38-4.58,2.9,2.31.45,4.13,1.5,5.46,3.16,1.33,1.66,1.99,3.66,1.99,6,0,2.04-.57,3.82-1.71,5.36-1.14,1.54-2.76,2.71-4.87,3.52-2.11.81-4.57,1.22-7.4,1.22h-17.91v-36.29h17.24c2.73,0,5.1.37,7.12,1.11Zm-4.53,12.37c.76-.64,1.14-1.53,1.14-2.67s-.38-1.96-1.14-2.56c-.76-.6-1.79-.89-3.11-.85h-7.25v7.04h7.25c1.31,0,2.35-.32,3.11-.96Zm.83,14.42c.97-.69,1.45-1.66,1.45-2.9,0-1.14-.48-2.04-1.45-2.72-.97-.67-2.28-.99-3.93-.96h-7.25v7.61h7.25c1.66,0,2.97-.34,3.93-1.04Z"/>
        <path d="m113.06,291.89l-2.48-6.42h-15.68l-2.54,6.42h-9.73l15.58-36.29h9.73l15.22,36.29h-10.09Zm-15.32-13.67h10.04l-4.97-12.94-5.07,12.94Z"/>
        <path d="m148.21,291.89l-5.28-10.04h-7.04v10.04h-9.47v-36.29h16.31c4.8,0,8.52,1.11,11.16,3.34,2.64,2.23,3.96,5.36,3.96,9.39,0,2.73-.55,5.08-1.66,7.07-1.1,1.98-2.71,3.53-4.81,4.63l7.56,11.85h-10.71Zm-12.32-17.6h6.88c1.93,0,3.42-.48,4.48-1.45,1.05-.97,1.58-2.36,1.58-4.19s-.53-3.11-1.58-4.06c-1.05-.95-2.55-1.42-4.48-1.42h-6.88v11.13Z"/>
        <path d="m188.69,255.6h8.8v36.29h-8.28l-16.46-21.69v21.69h-8.85v-36.29h8.33l16.51,21.84-.05-21.84Z"/>
        <path d="m223.39,263.73c-2.19-.72-4.03-1.09-5.51-1.09-1.17,0-2.1.22-2.77.65-.67.43-1.01,1.06-1.01,1.89s.29,1.46.88,1.99c.59.54,1.31.97,2.17,1.29.86.33,2.14.75,3.83,1.27,2.52.72,4.6,1.45,6.24,2.17,1.64.73,3.05,1.84,4.22,3.34,1.17,1.5,1.76,3.46,1.76,5.87s-.64,4.48-1.92,6.19c-1.28,1.71-3.03,2.99-5.25,3.86-2.23.86-4.7,1.29-7.43,1.29-3,0-6-.53-8.98-1.58-2.99-1.05-5.56-2.49-7.74-4.32l3.68-7.4c1.83,1.62,3.99,2.95,6.5,3.99,2.5,1.04,4.72,1.55,6.65,1.55,1.41,0,2.53-.26,3.34-.78.81-.52,1.22-1.28,1.22-2.28,0-.83-.3-1.52-.91-2.07-.6-.55-1.36-.99-2.28-1.32-.91-.33-2.2-.72-3.86-1.16-2.48-.69-4.54-1.39-6.16-2.1-1.62-.71-3.01-1.78-4.17-3.21-1.16-1.43-1.73-3.34-1.73-5.72,0-2.24.6-4.21,1.79-5.9,1.19-1.69,2.88-2.99,5.07-3.91,2.19-.91,4.74-1.37,7.64-1.37,2.62,0,5.21.37,7.76,1.11,2.55.74,4.8,1.73,6.73,2.98l-3.57,7.56c-1.93-1.14-3.99-2.07-6.19-2.8Z"/>
        <path d="m273.53,273.36h8.18v14.44c-1.93,1.42-4.31,2.56-7.12,3.44-2.81.88-5.48,1.32-8,1.32-3.66,0-6.96-.82-9.91-2.46-2.95-1.64-5.27-3.89-6.96-6.75-1.69-2.86-2.54-6.07-2.54-9.63s.87-6.7,2.61-9.55c1.74-2.85,4.14-5.08,7.2-6.7,3.05-1.62,6.46-2.43,10.22-2.43,2.69,0,5.38.49,8.08,1.48,2.69.98,4.97,2.3,6.83,3.96l-5.38,6.63c-1.31-1.24-2.82-2.23-4.53-2.95s-3.39-1.09-5.05-1.09c-1.93,0-3.68.47-5.23,1.4-1.55.93-2.78,2.21-3.68,3.83-.9,1.62-1.35,3.43-1.35,5.44s.45,3.87,1.35,5.51c.9,1.64,2.14,2.92,3.73,3.86,1.59.93,3.35,1.4,5.28,1.4,1.83,0,3.92-.59,6.26-1.76v-9.37Z"/>
        <path d="m309.76,291.89l-5.28-10.04h-7.04v10.04h-9.47v-36.29h16.31c4.8,0,8.52,1.11,11.16,3.34,2.64,2.23,3.96,5.36,3.96,9.39,0,2.73-.55,5.08-1.66,7.07-1.1,1.98-2.71,3.53-4.81,4.63l7.56,11.85h-10.71Zm-12.32-17.6h6.88c1.93,0,3.42-.48,4.48-1.45,1.05-.97,1.58-2.36,1.58-4.19s-.53-3.11-1.58-4.06c-1.05-.95-2.55-1.42-4.48-1.42h-6.88v11.13Z"/>
        <path d="m325.44,255.6h28.63v7.56h-19.15v6.78h17.29v7.51l-17.29.05v6.83h19.67v7.56h-29.14v-36.29Z"/>
        <path d="m360.38,255.6h28.63v7.56h-19.15v6.78h17.29v7.51l-17.29.05v6.83h19.67v7.56h-29.14v-36.29Z"/>
        <path d="m420.12,255.6h8.8v36.29h-8.28l-16.46-21.69v21.69h-8.85v-36.29h8.33l16.51,21.84-.05-21.84Z"/>
      </g>
      <path class="cls-2" d="m259.76,335.39h-6.46l-8.83,41.53h8.38c12.51,0,19.55-12.66,19.55-26.66,0-10.05-4.26-14.87-12.64-14.87Zm0,0h-6.46l-8.83,41.53h8.38c12.51,0,19.55-12.66,19.55-26.66,0-10.05-4.26-14.87-12.64-14.87Zm0,0h-6.46l-8.83,41.53h8.38c12.51,0,19.55-12.66,19.55-26.66,0-10.05-4.26-14.87-12.64-14.87Zm0,0h-6.46l-8.83,41.53h8.38c12.51,0,19.55-12.66,19.55-26.66,0-10.05-4.26-14.87-12.64-14.87Zm0,0h-6.46l-8.83,41.53h8.38c12.51,0,19.55-12.66,19.55-26.66,0-10.05-4.26-14.87-12.64-14.87Zm0,0h-6.46l-8.83,41.53h8.38c12.51,0,19.55-12.66,19.55-26.66,0-10.05-4.26-14.87-12.64-14.87Zm0,0h-6.46l-8.83,41.53h8.38c12.51,0,19.55-12.66,19.55-26.66,0-10.05-4.26-14.87-12.64-14.87Z"/>
      <g>
        <path class="cls-1" d="m76.54,420.6c-.77,3.67-2.23,6.42-7.16,6.42-.8,0-2.29-.16-3.07-.35l.79-3.65c.54.13,1.26.2,1.98.2,2.03,0,2.54-1.14,2.94-2.95l3.4-16.1h4.6l-3.49,16.43Z"/>
        <path class="cls-1" d="m97.13,416.85h-10.13l-1.28,6.07h11.53l-1.34,3.77h-15.53l4.78-22.52h15.13l-.81,3.78h-10.59l-1.08,5.12h10.14l-.82,3.77Z"/>
        <path class="cls-1" d="m99.7,426.7l4.78-22.52h5.93c1.58,5.26,4.35,14.33,4.78,17.21h.06c.33-2.59,1.2-6.58,1.98-10.27l1.47-6.93h4.31l-4.78,22.52h-5.63c-1.38-4.74-4.46-15.48-4.85-18.02h-.06c-.43,2.83-1.3,6.88-2.15,10.91l-1.5,7.11h-4.34Z"/>
        <path class="cls-1" d="m123.57,426.7l4.78-22.52h5.93c1.58,5.26,4.35,14.33,4.78,17.21h.06c.33-2.59,1.2-6.58,1.98-10.27l1.47-6.93h4.31l-4.78,22.52h-5.63c-1.38-4.74-4.46-15.48-4.85-18.02h-.06c-.43,2.83-1.3,6.88-2.15,10.91l-1.5,7.11h-4.34Z"/>
        <path class="cls-1" d="m156.86,404.17l-4.78,22.52h-4.6l4.78-22.52h4.6Z"/>
        <path class="cls-1" d="m157.45,426.7l4.78-22.52h5.93c1.58,5.26,4.35,14.33,4.78,17.21h.06c.33-2.59,1.2-6.58,1.98-10.27l1.47-6.93h4.31l-4.78,22.52h-5.63c-1.38-4.74-4.46-15.48-4.85-18.02h-.06c-.43,2.83-1.3,6.88-2.15,10.91l-1.5,7.11h-4.34Z"/>
        <path class="cls-1" d="m199.9,426.7h-3.62c-.05-.57.08-1.78.2-2.45-1.52,2.02-3.48,2.77-6.29,2.77-5.28,0-7.96-3.85-7.96-9.1,0-6.67,3.96-14.07,12.31-14.07,5.34,0,8.44,3.08,8.46,7.25h-4.62c-.1-1.65-1.18-3.56-4.39-3.56-4.89,0-6.97,5.64-6.97,10.06,0,3.45,1.38,5.73,4.53,5.73,3.81,0,4.94-2.5,5.49-5.15l.03-.1h-5.2l.87-4.03h9.56l-2.4,12.66Z"/>
        <path class="cls-1" d="m208.9,419.78c.18,2.27,1.62,3.7,4.48,3.7,2.44,0,3.83-.89,3.83-2.95,0-1.74-1.09-2.67-4.09-3.7-4.58-1.57-6.27-3.41-6.27-6.25,0-3.62,2.56-6.73,8.27-6.73,5.22,0,8.07,2.69,8.16,6.65h-4.68c-.1-1.36-.71-3.05-3.68-3.05-1.91,0-3.33.87-3.33,2.62,0,1.25.72,2.04,3.61,3.05,4.57,1.6,6.84,3.43,6.84,6.83,0,3.59-2.18,7.07-9.12,7.07-5.63,0-8.58-2.85-8.71-7.25h4.69Z"/>
        <path class="cls-1" d="m240.45,420.6c-.77,3.67-2.23,6.42-7.16,6.42-.8,0-2.29-.16-3.07-.35l.79-3.65c.54.13,1.26.2,1.98.2,2.03,0,2.54-1.14,2.94-2.95l3.4-16.1h4.6l-3.49,16.43Z"/>
        <path class="cls-1" d="m253.21,404.17l-2.97,13.89c-.78,3.66.71,5.32,3.62,5.32,3.12,0,4.3-1.42,5.08-4.96l3-14.25h4.63l-3.12,14.61c-1.21,5.46-3.75,8.23-10.02,8.23-5.29,0-9.17-2.46-7.74-9.24l2.92-13.6h4.6Z"/>
        <path class="cls-1" d="m266.8,426.7l4.78-22.52h5.93c1.58,5.26,4.35,14.33,4.78,17.21h.06c.33-2.59,1.2-6.58,1.98-10.27l1.47-6.93h4.31l-4.78,22.52h-5.63c-1.38-4.74-4.46-15.48-4.85-18.02h-.06c-.43,2.83-1.3,6.88-2.15,10.91l-1.5,7.11h-4.34Z"/>
        <path class="cls-1" d="m300.09,404.17l-4.78,22.52h-4.6l4.78-22.52h4.6Z"/>
        <path class="cls-1" d="m322.87,413.23c0,6.92-3.86,13.8-12.43,13.8-5.99,0-8.88-3.96-8.88-9.07,0-6.7,4.09-14.11,12.25-14.11,6.21,0,9.06,4.15,9.06,9.38Zm-16.53,4.55c0,3.41,1.54,5.56,4.71,5.56,5.06,0,7.1-5.47,7.1-10.17,0-3.29-1.32-5.63-4.61-5.63-4.78,0-7.2,5.48-7.2,10.24Z"/>
        <path class="cls-1" d="m331.19,417.52l-1.94,9.18h-4.57l4.78-22.52h8.58c4.3,0,6.86,2.19,6.86,5.89,0,3.1-1.86,5.15-4.62,5.88.91.44,2.65,1.54,1.87,5.37-.56,2.63-.93,4.33-.78,5.38h-4.38c-.13-.98.05-2.6.65-5.39.53-2.46.08-3.79-2.39-3.79h-4.05Zm.76-3.69h3.79c2.63,0,4.46-.92,4.46-3.31,0-1.71-.96-2.66-3.25-2.66h-3.73l-1.26,5.97Z"/>
        <path class="cls-1" d="m362.22,420.6c-.77,3.67-2.23,6.42-7.16,6.42-.8,0-2.29-.16-3.07-.35l.79-3.65c.54.13,1.26.2,1.98.2,2.03,0,2.54-1.14,2.94-2.95l3.4-16.1h4.6l-3.49,16.43Z"/>
        <path class="cls-1" d="m388.33,413.23c0,6.92-3.86,13.8-12.43,13.8-5.99,0-8.88-3.96-8.88-9.07,0-6.7,4.09-14.11,12.25-14.11,6.21,0,9.06,4.15,9.06,9.38Zm-16.53,4.55c0,3.41,1.54,5.56,4.71,5.56,5.06,0,7.1-5.47,7.1-10.17,0-3.29-1.32-5.63-4.61-5.63-4.78,0-7.2,5.48-7.2,10.24Z"/>
        <path class="cls-1" d="m408.85,426.7h-3.62c-.05-.57.08-1.78.2-2.45-1.52,2.02-3.48,2.77-6.29,2.77-5.28,0-7.96-3.85-7.96-9.1,0-6.67,3.96-14.07,12.31-14.07,5.34,0,8.44,3.08,8.46,7.25h-4.62c-.1-1.65-1.18-3.56-4.39-3.56-4.89,0-6.97,5.64-6.97,10.06,0,3.45,1.38,5.73,4.53,5.73,3.81,0,4.94-2.5,5.49-5.15l.03-.1h-5.2l.87-4.03h9.56l-2.4,12.66Z"/>
      </g>
    </g>
  </g>
</svg>