<?xml version="1.0" encoding="UTF-8"?>
<svg id="Layer_2" data-name="Layer 2" xmlns="http://www.w3.org/2000/svg" xmlns:xlink="http://www.w3.org/1999/xlink" viewBox="0 0 772.66 772.29">
  <defs>
    <style>
      .cls-1 {
        fill: url(#linear-gradient-2);
      }

      .cls-2 {
        fill: #fff;
      }

      .cls-3 {
        fill: url(#linear-gradient-6);
      }

      .cls-4 {
        clip-path: url(#clippath-2);
      }

      .cls-5 {
        clip-path: url(#clippath-1);
      }

      .cls-6 {
        fill: #30c730;
      }

      .cls-7 {
        fill: url(#linear-gradient-5);
      }

      .cls-8 {
        clip-path: url(#clippath);
      }

      .cls-9 {
        fill: none;
      }

      .cls-10 {
        fill: url(#linear-gradient-7);
      }

      .cls-11 {
        fill: url(#linear-gradient-3);
      }

      .cls-12 {
        fill: url(#linear-gradient);
      }

      .cls-13 {
        fill: url(#linear-gradient-4);
      }

      .cls-14 {
        fill: url(#linear-gradient-8);
      }
    </style>
    <linearGradient id="linear-gradient" x1="298.83" y1="104.85" x2="715.52" y2="104.85" gradientUnits="userSpaceOnUse">
      <stop offset="0" stop-color="#ffd800"/>
      <stop offset=".23" stop-color="#ffd800"/>
      <stop offset=".84" stop-color="#f27448"/>
      <stop offset="1" stop-color="#f27448"/>
    </linearGradient>
    <clipPath id="clippath">
      <path class="cls-12" d="m367.57,104.85c0,22.86,18.05,41.39,40.32,41.39s40.32-18.53,40.32-41.39-18.05-41.39-40.32-41.39-40.32,18.53-40.32,41.39"/>
    </clipPath>
    <linearGradient id="linear-gradient-2" x1="-208.7" y1="806.43" x2="-206.94" y2="806.43" gradientTransform="translate(-60536.21 -235906.91) rotate(180) scale(292.66 -292.66)" xlink:href="#linear-gradient"/>
    <linearGradient id="linear-gradient-3" x1="257.43" y1="174.68" x2="726.4" y2="174.68" gradientUnits="userSpaceOnUse">
      <stop offset="0" stop-color="#ffd800"/>
      <stop offset=".23" stop-color="#ffd800"/>
      <stop offset=".65" stop-color="#f27448"/>
      <stop offset="1" stop-color="#f27448"/>
    </linearGradient>
    <clipPath id="clippath-1">
      <path class="cls-11" d="m267.03,118.18c73.36,0,124.29,115.79,165.99,115.79,48.18,0,100.04-60.22,100.04-62.45,0,0-37.84,35.46-82.29,35.46-49.93,0-92.08-91.58-159.43-91.58-14.45,0-24.31,2.79-24.31,2.79Z"/>
    </clipPath>
    <linearGradient id="linear-gradient-4" x1="-208.68" y1="806.54" x2="-206.92" y2="806.54" gradientTransform="translate(-60518.2 -235870.07) rotate(-180) scale(292.66 -292.66)" gradientUnits="userSpaceOnUse">
      <stop offset="0" stop-color="#ffd800"/>
      <stop offset=".23" stop-color="#ffd800"/>
      <stop offset=".58" stop-color="#f27448"/>
      <stop offset="1" stop-color="#f27448"/>
    </linearGradient>
    <linearGradient id="linear-gradient-5" x1="98.5" y1="74.71" x2="319.31" y2="74.71" xlink:href="#linear-gradient"/>
    <linearGradient id="linear-gradient-6" x1="98.5" y1="74.71" x2="319.31" y2="74.71" xlink:href="#linear-gradient"/>
    <clipPath id="clippath-2">
      <path class="cls-3" d="m98.5,86.95c11.41,0,86.65-13.84,130.64-13.6,59.78.33,90.16,24.08,90.16,24.08,0,0-3.28-45.44-72.64-45.44s-148.16,34.95-148.16,34.95Z"/>
    </clipPath>
    <linearGradient id="linear-gradient-7" x1="88.21" y1="77.29" x2="385.98" y2="77.29" gradientUnits="userSpaceOnUse">
      <stop offset="0" stop-color="#ffd800"/>
      <stop offset=".23" stop-color="#ffd800"/>
      <stop offset=".87" stop-color="#f27448"/>
      <stop offset="1" stop-color="#f27448"/>
    </linearGradient>
    <linearGradient id="linear-gradient-8" x1="0" y1="248.4" x2="353.61" y2="248.4" xlink:href="#linear-gradient"/>
  </defs>
  <g id="Layer_2-2" data-name="Layer 2">
    <rect class="cls-9" x="1.03" width="771.63" height="771.63"/>
    <g>
      <g>
        <path class="cls-12" d="m367.57,104.85c0,22.86,18.05,41.39,40.32,41.39s40.32-18.53,40.32-41.39-18.05-41.39-40.32-41.39-40.32,18.53-40.32,41.39"/>
        <g class="cls-8">
          <rect class="cls-1" x="358.05" y="54.26" width="99.69" height="101.19" transform="translate(-13.2 111.83) rotate(-15.37)"/>
        </g>
      </g>
      <g>
        <path class="cls-11" d="m267.03,118.18c73.36,0,124.29,115.79,165.99,115.79,48.18,0,100.04-60.22,100.04-62.45,0,0-37.84,35.46-82.29,35.46-49.93,0-92.08-91.58-159.43-91.58-14.45,0-24.31,2.79-24.31,2.79Z"/>
        <g class="cls-5">
          <rect class="cls-13" x="251.82" y="80.36" width="292.22" height="186.75" transform="translate(-31.81 111.66) rotate(-15.37)"/>
        </g>
      </g>
      <g>
        <path class="cls-7" d="m98.5,86.95c11.41,0,86.65-13.84,130.64-13.6,59.78.33,90.16,24.08,90.16,24.08,0,0-3.28-45.44-72.64-45.44s-148.16,34.95-148.16,34.95Z"/>
        <g class="cls-4">
          <polygon class="cls-10" points="385.98 95.67 120.03 158.56 88.21 58.92 354.16 -3.98 385.98 95.67"/>
        </g>
      </g>
      <path class="cls-6" d="m772.66,394.68c0,4.37-1.37,9.22-4.12,14.58-2.75,5.35-7.09,10.35-13,15-8.03,5.78-15.39,11.07-22.08,15.85-6.69,4.8-13.52,9.27-20.5,13.42-6.98,4.16-14.45,8.03-22.4,11.63-7.96,3.59-17.29,6.94-28,10.03-3.67,1.13-7.02,1.97-10.04,2.54-3.04.56-5.81.84-8.35.84-7.47,0-12.93-2.08-16.38-6.23-3.46-4.16-5.18-9.96-5.18-17.43,0-.99.04-1.94.11-2.86.07-.92.18-1.93.32-3.06.29-4.37,1.45-9.15,3.49-14.37,2.04-5.21,4.51-10.56,7.4-16.06,2.89-5.49,5.95-10.95,9.19-16.38,3.23-5.42,6.23-10.56,8.98-15.42,2.75-4.86,5.04-9.19,6.87-13,1.83-3.8,2.75-6.9,2.75-9.3,0-2.11-.6-3.9-1.8-5.38-1.19-1.49-2.99-2.23-5.38-2.23-9.02,0-17.58,2.68-25.68,8.03-8.1,5.36-15.67,11.94-22.71,19.76-7.05,7.82-13.53,16.1-19.44,24.83-5.92,8.74-11.14,16.55-15.64,23.45-2.82,4.65-5.39,9.62-7.72,14.9-2.32,5.28-4.75,10.22-7.28,14.79-2.54,4.58-5.39,8.39-8.56,11.41-3.17,3.04-7.15,4.54-11.94,4.54s-8.8-1.55-11.62-4.64c-2.82-3.1-4.23-6.91-4.23-11.41,0-1.4.34-3.3,1.01-5.71-2.35,1.54-4.7,3.02-7.09,4.43-8.74,5.21-17.33,9.4-25.78,12.57-8.45,3.17-16.06,4.75-22.82,4.75s-12.26-1.9-16.49-5.71c-4.23-3.8-6.34-10.28-6.34-19.44,0-6.47,1.12-14.01,3.38-22.61-3.67,5.5-8.25,11.06-13.74,16.69-5.5,5.64-11.77,10.78-18.81,15.42-7.05,4.65-14.93,8.43-23.66,11.31-8.74,2.89-18.25,4.33-28.54,4.33-4.64,0-9.12-.49-13.41-1.48-4.3-.99-8.07-2.68-11.3-5.07-3.24-2.39-5.85-5.61-7.82-9.62-.2-.39-.38-.81-.55-1.23-4.27,2.58-8.49,4.82-12.7,6.72-13.87,6.27-27.01,9.41-39.41,9.41-10.14,0-19.51-2.9-28.1-8.67-8.59-5.77-16.42-13.59-23.45-23.45-7.05-9.85-13.46-21.37-19.24-34.55-5.77-13.18-10.92-27.08-15.42-41.73-2.54,5.77-5.14,12.57-7.82,20.39-2.67,7.82-5.57,15.88-8.66,24.19-3.1,8.32-6.34,16.53-9.72,24.63-3.38,8.1-7.11,15.35-11.2,21.77-4.09,6.41-8.45,11.59-13.11,15.53-4.64,3.94-9.72,5.91-15.21,5.91-4.51,0-8.18-.71-11-2.11-2.82-1.41-5-3.17-6.54-5.28-1.56-2.12-2.64-4.44-3.28-6.98-.63-2.53-.95-4.93-.95-7.18,0-3.24.42-6.55,1.26-9.93.85-3.38,2.04-6.55,3.6-9.51l62.34-114.11c5.35-9.58,10.74-18.84,16.16-27.79,5.43-8.95,10.71-16.87,15.86-23.77,5.14-6.91,10-12.44,14.57-16.59,4.58-4.15,8.7-6.23,12.37-6.23.99,0,2.18.18,3.6.52,1.4.35,2.67.99,3.8,1.9,1.12.92,2.11,2.26,2.96,4.02.85,1.76,1.26,3.98,1.26,6.65s-.77,6.42-2.32,11.2c-1.56,4.79-3.6,10.28-6.13,16.48-2.54,6.21-5.5,13-8.88,20.4-3.38,7.39-6.91,14.97-10.56,22.71.85.14,1.72.21,2.64.21h2.85c12.26,0,23.85-2.64,34.77-7.92,4.46-2.16,8.7-4.55,12.7-7.21,18.41,0,86.43-26.47,89.15-69.33.08,1.52.11,3.04.11,4.6,0,9.85-1.79,19.26-5.39,28.2-3.6,8.95-8.42,17.33-14.48,25.15-6.06,7.82-13.14,15.01-21.24,21.56-8.1,6.54-16.73,12.36-25.89,17.43-9.16,5.07-18.57,9.37-28.21,12.89-9.65,3.52-18.98,6.06-28,7.61,1.26,6.62,3.34,14.05,6.23,22.29,2.89,8.24,6.42,16.06,10.57,23.45,4.15,7.4,8.77,13.71,13.84,18.92,5.07,5.21,10.43,8.03,16.06,8.45,1.12.15,2.18.22,3.17.22h2.96c10.28,0,19.44-1.69,27.47-5.07,7.26-3.05,13.41-6.4,18.49-10.02.58-1.84,1.22-3.82,1.94-5.93,3.04-8.94,7.72-20.53,14.06-34.76,6.34-14.23,15.28-31.49,26.83-51.77,2.96-5.35,6.38-9.19,10.25-11.52,3.87-2.33,8.06-3.49,12.57-3.49,1.97,0,4.01.25,6.13.74,2.11.5,4.08,1.27,5.91,2.33s3.31,2.39,4.44,4.02c1.12,1.62,1.69,3.48,1.69,5.6,0,1.41-.21,2.75-.63,4.01-.71,2.4-2.22,5.54-4.54,9.41-2.33,3.87-5.05,8.31-8.14,13.31-3.09,5-6.38,10.39-9.82,16.16-3.45,5.77-6.65,11.77-9.62,17.96-2.96,6.2-5.49,12.5-7.61,18.91-2.11,6.42-3.31,12.64-3.59,18.7,0,2.53.7,4.86,2.11,6.98,1.41,2.11,3.73,3.16,6.98,3.16,9.15,0,17.89-2.53,26.2-7.61,8.31-5.07,15.98-11.37,23.03-18.91,7.05-7.54,13.42-15.64,19.13-24.3,5.71-8.66,10.47-16.58,14.27-23.78,2.67-4.78,5.04-9.92,7.08-15.42,2.04-5.5,4.26-10.56,6.65-15.21,2.39-4.65,5.14-8.52,8.25-11.62,3.09-3.1,6.97-4.65,11.62-4.65,5.07,0,9.09,1.62,12.05,4.86,2.96,3.24,4.43,7.11,4.43,11.62,0,2.54-.96,6.03-2.86,10.47-1.9,4.43-4.3,9.51-7.18,15.21-2.89,5.71-6.02,11.8-9.4,18.28-3.38,6.48-6.51,13.07-9.4,19.76-2.89,6.69-5.28,13.24-7.18,19.65-1.9,6.42-2.86,12.37-2.86,17.86,0,5.07,3.09,7.61,9.3,7.61,4.37,0,9.79-1.26,16.27-3.8,6.47-2.53,13.27-6.09,20.39-10.67,6.47-4.16,12.95-9,19.42-14.52.96-2.03,1.93-4.09,2.94-6.19,3.87-8.1,7.75-16.13,11.62-24.09,3.87-7.95,7.58-15.46,11.1-22.51,3.52-7.04,6.41-13.03,8.66-17.95,2.82-6.06,6.35-10.57,10.57-13.53,4.22-2.96,8.38-4.43,12.47-4.43,3.38,0,6.41,1.23,9.09,3.7,2.67,2.46,4.01,6.1,4.01,10.88,0,1.83-.21,3.8-.63,5.92-.42,2.11-1.2,4.37-2.33,6.76,3.09-3.94,7.54-7.99,13.31-12.15,5.77-4.15,12.15-7.88,19.13-11.19,6.97-3.31,14.16-6.03,21.55-8.14,7.4-2.12,14.41-3.17,21.03-3.17,7.46,0,13.7,1.8,18.7,5.39,5,3.6,7.5,9.69,7.5,18.28,0,5.07-.78,10.36-2.33,15.85-1.55,5.5-3.56,10.99-6.02,16.49-2.46,5.5-5.21,10.88-8.24,16.16-3.04,5.29-6.03,10.26-8.99,14.9-2.96,4.65-5.68,8.92-8.13,12.79-2.47,3.87-4.4,7.08-5.81,9.61-1.83,2.26-2.75,4.87-2.75,7.82,0,1.12.35,2.11,1.05,2.96.71.85,1.83,1.27,3.38,1.27.99,0,2.12-.11,3.38-.32,1.27-.22,2.82-.96,4.65-2.23,7.61-2.81,15.39-6.34,23.35-10.56,7.95-4.23,15.6-8.69,22.93-13.42,7.32-4.71,14.05-9.43,20.17-14.15,6.13-4.72,11.23-8.99,15.32-12.79,1.12-.99,2.26-1.69,3.38-2.11,1.13-.42,2.19-.63,3.17-.63,2.39,0,4.26.92,5.6,2.74,1.34,1.83,2.01,4.16,2.01,6.98Z"/>
      <path class="cls-9" d="m280.72,307.83c-4.51,4.51-9.45,8.59-14.81,12.19,5.15-3.71,26.9-20.47,36.45-46.47h0s.8-.44.8-.44c-.89,2.47-1.92,4.96-3.1,7.47-4.72,10-11.16,19.09-19.33,27.26Z"/>
      <path class="cls-9" d="m353.92,245.13v6.34c-.08-2.07-.23-4.1-.45-6.09l.45-.25Z"/>
      <path class="cls-14" d="m353.61,249.65c0,44.43-70.46,71.99-89.24,71.99,0,0,42.1-27.8,42.1-72.23,0-18.15-25.29-31.1-63.4-31.1C152.41,218.31,0,303.49,0,303.49c0,0,109.49-128.32,243.51-128.32,56.06,0,110.1,23.26,110.1,74.48Z"/>
      <g>
        <path d="m129.46,509.34c3.6,1.32,6.38,3.22,8.35,5.68,1.97,2.46,2.95,5.35,2.95,8.68s-1,6.34-3,8.86c-2,2.52-4.72,4.25-8.17,5.17,4.12.8,7.37,2.68,9.74,5.63,2.37,2.95,3.55,6.52,3.55,10.71,0,3.63-1.02,6.82-3.05,9.55-2.03,2.74-4.92,4.83-8.68,6.28-3.75,1.45-8.16,2.17-13.2,2.17h-31.94v-64.71h30.74c4.86,0,9.09.66,12.69,1.98Zm-8.08,22.06c1.35-1.14,2.03-2.72,2.03-4.75s-.68-3.49-2.03-4.57c-1.35-1.08-3.2-1.58-5.54-1.52h-12.92v12.55h12.92c2.34,0,4.18-.57,5.54-1.71Zm1.48,25.71c1.72-1.23,2.58-2.95,2.58-5.17,0-2.03-.86-3.65-2.58-4.85-1.72-1.2-4.06-1.77-7.02-1.71h-12.92v13.57h12.92c2.95,0,5.29-.61,7.02-1.85Z"/>
        <path d="m199.66,572.06l-4.43-11.45h-27.97l-4.52,11.45h-17.35l27.78-64.71h17.35l27.14,64.71h-18Zm-27.32-24.37h17.91l-8.86-23.08-9.05,23.08Z"/>
        <path d="m262.34,572.06l-9.42-17.91h-12.55v17.91h-16.89v-64.71h29.08c8.55,0,15.19,1.98,19.89,5.95,4.71,3.97,7.06,9.55,7.06,16.75,0,4.86-.99,9.06-2.95,12.6-1.97,3.54-4.83,6.29-8.58,8.26l13.48,21.14h-19.11Zm-21.97-31.38h12.28c3.45,0,6.11-.86,7.98-2.58,1.88-1.72,2.82-4.21,2.82-7.48s-.94-5.55-2.82-7.25c-1.88-1.69-4.54-2.54-7.98-2.54h-12.28v19.85Z"/>
        <path d="m334.52,507.36h15.69v64.71h-14.77l-29.35-38.68v38.68h-15.78v-64.71h14.86l29.45,38.95-.09-38.95Z"/>
        <path d="m396.41,521.85c-3.91-1.29-7.19-1.94-9.83-1.94-2.09,0-3.74.39-4.94,1.15-1.2.77-1.8,1.89-1.8,3.37s.52,2.6,1.57,3.55c1.05.95,2.34,1.72,3.88,2.31,1.54.59,3.81,1.34,6.83,2.26,4.49,1.29,8.2,2.58,11.12,3.88,2.92,1.29,5.43,3.28,7.52,5.95,2.09,2.68,3.14,6.17,3.14,10.48s-1.14,7.98-3.42,11.03c-2.28,3.05-5.4,5.34-9.37,6.88-3.97,1.54-8.39,2.31-13.25,2.31-5.35,0-10.69-.94-16.02-2.82-5.32-1.88-9.92-4.45-13.8-7.71l6.55-13.2c3.26,2.89,7.12,5.26,11.58,7.11,4.46,1.85,8.41,2.77,11.86,2.77,2.52,0,4.51-.46,5.95-1.38,1.45-.92,2.17-2.28,2.17-4.06,0-1.48-.54-2.71-1.62-3.69-1.08-.98-2.43-1.77-4.06-2.35-1.63-.58-3.92-1.28-6.88-2.08-4.43-1.23-8.09-2.48-10.98-3.74-2.89-1.26-5.37-3.17-7.43-5.72-2.06-2.55-3.09-5.95-3.09-10.2,0-4,1.06-7.51,3.18-10.52,2.12-3.01,5.14-5.34,9.05-6.97,3.91-1.63,8.45-2.45,13.62-2.45,4.68,0,9.29.66,13.85,1.98,4.55,1.32,8.55,3.09,12,5.31l-6.37,13.48c-3.45-2.03-7.12-3.69-11.03-4.98Z"/>
        <path d="m485.81,539.02h14.58v25.75c-3.45,2.52-7.68,4.57-12.69,6.14-5.02,1.57-9.77,2.35-14.26,2.35-6.52,0-12.42-1.46-17.68-4.38-5.26-2.92-9.4-6.94-12.42-12.05-3.02-5.11-4.52-10.83-4.52-17.17s1.55-11.95,4.66-17.03c3.11-5.08,7.38-9.06,12.83-11.95,5.45-2.89,11.52-4.34,18.23-4.34,4.8,0,9.6.88,14.4,2.63,4.8,1.75,8.86,4.11,12.18,7.06l-9.6,11.81c-2.34-2.21-5.03-3.97-8.08-5.26-3.05-1.29-6.05-1.94-9-1.94-3.45,0-6.55.83-9.32,2.49-2.77,1.66-4.95,3.94-6.55,6.83-1.6,2.89-2.4,6.12-2.4,9.69s.8,6.91,2.4,9.83c1.6,2.92,3.82,5.21,6.65,6.88,2.83,1.66,5.97,2.49,9.41,2.49,3.26,0,6.98-1.05,11.17-3.14v-16.71Z"/>
        <path d="m550.43,572.06l-9.42-17.91h-12.55v17.91h-16.89v-64.71h29.08c8.55,0,15.19,1.98,19.89,5.95,4.71,3.97,7.06,9.55,7.06,16.75,0,4.86-.99,9.06-2.95,12.6-1.97,3.54-4.83,6.29-8.58,8.26l13.48,21.14h-19.11Zm-21.97-31.38h12.28c3.45,0,6.11-.86,7.98-2.58,1.88-1.72,2.82-4.21,2.82-7.48s-.94-5.55-2.82-7.25c-1.88-1.69-4.54-2.54-7.98-2.54h-12.28v19.85Z"/>
        <path d="m578.39,507.36h51.05v13.48h-34.15v12.09h30.83v13.38l-30.83.09v12.18h35.08v13.48h-51.97v-64.71Z"/>
        <path d="m640.7,507.36h51.05v13.48h-34.15v12.09h30.83v13.38l-30.83.09v12.18h35.08v13.48h-51.97v-64.71Z"/>
        <path d="m747.22,507.36h15.69v64.71h-14.77l-29.35-38.68v38.68h-15.78v-64.71h14.86l29.45,38.95-.09-38.95Z"/>
      </g>
      <rect class="cls-6" x="86.04" y="601.05" width="676.88" height="171.25"/>
      <g>
        <path class="cls-2" d="m397.8,654.17h-45.91c-1.16,4.19-4.3,14.37-5.34,17.75,4.9-3.04,11.06-4.59,19.9-4.59,19.96,0,32.24,13.41,32.24,32.98,0,27.27-17.22,49.1-51.99,49.1-28.97,0-42.69-14.02-42.93-35.48h32c.29,6.63,3.07,12.86,11.78,12.86,10.84,0,16.55-11.5,16.55-22.68,0-8.02-3.41-13.73-12.1-13.73-7.34,0-11.67,3.81-14.93,9.69l-27.64-4.03c5.23-15.35,15.26-51.18,19.41-67.09h78.34l-9.38,25.23Z"/>
        <path class="cls-2" d="m432.57,623.68h34.1l-10.86,50.88c10.61-12.32,33.15-34.28,48.62-50.88h40.75l-55.25,52.15,31.31,71.47h-37.08l-20.35-51.34-15.13,12.56-8.1,38.78h-34.22l26.2-123.61Z"/>
      </g>
    </g>
  </g>
</svg>