<svg xmlns="http://www.w3.org/2000/svg" xmlns:xlink="http://www.w3.org/1999/xlink" viewBox="0 0 787.76 787.76"><defs><style>.cls-1,.cls-9{fill:none;}.cls-1,.cls-10{stroke:#006cb6;stroke-miterlimit:10;}.cls-2{clip-path:url(#clip-path);}.cls-3{fill:url(#linear-gradient);}.cls-4{clip-path:url(#clip-path-2);}.cls-5{fill:url(#linear-gradient-2);}.cls-6{clip-path:url(#clip-path-3);}.cls-7{fill:url(#linear-gradient-3);}.cls-8{fill:#006cb6;}.cls-10{fill:url(#linear-gradient-4);}.cls-11{fill:#fff;}</style><clipPath id="clip-path"><path class="cls-1" d="M376.68,110.44c0,23.2,18.32,42,40.91,42s40.91-18.8,40.91-42-18.31-42-40.91-42-40.91,18.81-40.91,42"/></clipPath><linearGradient id="linear-gradient" x1="-3513.01" y1="1450.6" x2="-3511.22" y2="1450.6" gradientTransform="matrix(-292.66, 0, 0, 292.66, -1027568.97, -424423.9)" gradientUnits="userSpaceOnUse"><stop offset="0" stop-color="#9bca3b"/><stop offset="0.23" stop-color="#9bca3b"/><stop offset="0.84" stop-color="#3cb994"/><stop offset="1" stop-color="#3cb994"/></linearGradient><clipPath id="clip-path-2"><path class="cls-1" d="M274.65,124c74.44,0,126.12,117.51,168.44,117.51,48.89,0,101.52-61.11,101.52-63.38,0,0-38.4,36-83.51,36-50.67,0-93.44-92.94-161.79-92.94A99.87,99.87,0,0,0,274.65,124Z"/></clipPath><linearGradient id="linear-gradient-2" x1="-3512.99" y1="1450.71" x2="-3511.2" y2="1450.71" gradientTransform="matrix(-292.66, 0, 0, 292.66, -1027550.6, -424387.44)" xlink:href="#linear-gradient"/><clipPath id="clip-path-3"><path class="cls-1" d="M103.62,92.27c11.58,0,87.93-14,132.58-13.8,60.67.33,91.5,24.44,91.5,24.44S324.37,56.8,254,56.8,103.62,92.27,103.62,92.27Z"/></clipPath><linearGradient id="linear-gradient-3" x1="93.18" y1="82.47" x2="338.14" y2="82.47" gradientTransform="matrix(1, 0, 0, 1, 0, 0)" xlink:href="#linear-gradient"/><linearGradient id="linear-gradient-4" x1="3.66" y1="256.12" x2="362.5" y2="256.12" gradientTransform="matrix(1, 0, 0, 1, 0, 0)" xlink:href="#linear-gradient"/></defs><g id="Layer_2" data-name="Layer 2"><g id="Layer_1-2" data-name="Layer 1"><g class="cls-2"><rect class="cls-3" x="367.01" y="59.09" width="101.16" height="102.69" transform="translate(-14.34 114.6) rotate(-15.37)"/></g><path class="cls-1" d="M376.68,110.44c0,23.2,18.32,42,40.91,42s40.91-18.8,40.91-42-18.31-42-40.91-42-40.91,18.81-40.91,42"/><g class="cls-4"><rect class="cls-5" x="259.22" y="85.58" width="296.54" height="189.52" transform="translate(-33.22 114.43) rotate(-15.37)"/></g><path class="cls-1" d="M274.65,124c74.44,0,126.12,117.51,168.44,117.51,48.89,0,101.52-61.11,101.52-63.38,0,0-38.4,36-83.51,36-50.67,0-93.44-92.94-161.79-92.94A99.87,99.87,0,0,0,274.65,124Z"/><g class="cls-6"><polygon class="cls-7" points="338.14 101.12 119.36 164.94 93.18 63.82 311.96 0 338.14 101.12"/></g><path class="cls-1" d="M103.62,92.27c11.58,0,87.93-14,132.58-13.8,60.67.33,91.5,24.44,91.5,24.44S324.37,56.8,254,56.8,103.62,92.27,103.62,92.27Z"/><path class="cls-8" d="M787.76,404.56q0,6.65-4.18,14.8t-13.19,15.22q-12.23,8.81-22.41,16.08t-20.8,13.62a227.37,227.37,0,0,1-22.73,11.8A215,215,0,0,1,676,486.26a93.5,93.5,0,0,1-10.19,2.58,46.77,46.77,0,0,1-8.47.85q-11.37,0-16.62-6.32t-5.26-17.69c0-1,0-2,.11-2.9s.18-2,.32-3.11a49.24,49.24,0,0,1,3.54-14.58,162.75,162.75,0,0,1,7.51-16.3q4.39-8.35,9.33-16.62t9.11-15.65q4.19-7.39,7-13.19t2.79-9.44a8.38,8.38,0,0,0-1.83-5.46,6.57,6.57,0,0,0-5.46-2.26,46.52,46.52,0,0,0-26.06,8.15,121,121,0,0,0-23.05,20.05,232.13,232.13,0,0,0-19.73,25.2q-9,13.31-15.87,23.8a131,131,0,0,0-7.83,15.12q-3.52,8-7.39,15a48,48,0,0,1-8.69,11.58,16.83,16.83,0,0,1-12.12,4.61q-7.5,0-11.79-4.71a16.6,16.6,0,0,1-4.29-11.58,23,23,0,0,1,1-5.79c-2.38,1.56-4.77,3.06-7.19,4.5a163.5,163.5,0,0,1-26.16,12.76q-12.87,4.83-23.16,4.82t-16.73-5.79q-6.44-5.79-6.43-19.73a91.9,91.9,0,0,1,3.43-22.94,119.78,119.78,0,0,1-13.94,16.94,114.64,114.64,0,0,1-19.09,15.65,100.75,100.75,0,0,1-24,11.48,91.82,91.82,0,0,1-29,4.39,60.72,60.72,0,0,1-13.61-1.5,30.62,30.62,0,0,1-11.47-5.14,26.28,26.28,0,0,1-7.94-9.76c-.2-.4-.39-.82-.56-1.25a121.9,121.9,0,0,1-12.89,6.82q-21.12,9.54-40,9.55a50.12,50.12,0,0,1-28.52-8.8,93.81,93.81,0,0,1-23.8-23.8,194.18,194.18,0,0,1-19.52-35.06A393,393,0,0,1,195.9,378.4Q192,387.19,188,399.09t-8.79,24.55q-4.72,12.66-9.86,25a144.69,144.69,0,0,1-11.37,22.09,69.39,69.39,0,0,1-13.3,15.76,23.35,23.35,0,0,1-15.43,6,25.15,25.15,0,0,1-11.16-2.14,18,18,0,0,1-6.64-5.36,20.19,20.19,0,0,1-3.33-7.08,30.21,30.21,0,0,1-1-7.29,41.83,41.83,0,0,1,1.28-10.08,43.13,43.13,0,0,1,3.65-9.65l63.26-115.8q8.15-14.58,16.4-28.2t16.09-24.12a118.6,118.6,0,0,1,14.79-16.84q7-6.32,12.55-6.32a15.91,15.91,0,0,1,3.65.53,10,10,0,0,1,3.86,1.93,11.7,11.7,0,0,1,3,4.08,15.57,15.57,0,0,1,1.28,6.75q0,4.08-2.35,11.37T238.36,301q-3.87,9.45-9,20.7t-10.72,23.05a16.63,16.63,0,0,0,2.68.21h2.89a80,80,0,0,0,35.28-8,108.54,108.54,0,0,0,12.89-7.32c18.68,0,87.71-26.86,90.47-70.36.08,1.54.11,3.09.11,4.67a76,76,0,0,1-5.47,28.62A106,106,0,0,1,342.79,318a132.52,132.52,0,0,1-21.55,21.88A182.69,182.69,0,0,1,295,357.6a202.71,202.71,0,0,1-28.63,13.08,164.14,164.14,0,0,1-28.41,7.72A159.74,159.74,0,0,0,244.25,401,148.82,148.82,0,0,0,255,424.82,91.75,91.75,0,0,0,269,444q7.73,7.94,16.3,8.57a24.66,24.66,0,0,0,3.22.22h3a71.33,71.33,0,0,0,27.88-5.15,96.77,96.77,0,0,0,18.76-10.17c.59-1.87,1.24-3.88,2-6q4.62-13.61,14.27-35.27t27.23-52.54q4.5-8.15,10.4-11.69a24.34,24.34,0,0,1,12.76-3.54,27.42,27.42,0,0,1,6.22.75,22.34,22.34,0,0,1,6,2.36,13.77,13.77,0,0,1,4.51,4.08,9.7,9.7,0,0,1,1.71,5.68,12.71,12.71,0,0,1-.64,4.07,44.41,44.41,0,0,1-4.61,9.55q-3.54,5.9-8.26,13.51t-10,16.4q-5.25,8.79-9.76,18.23a164.66,164.66,0,0,0-7.72,19.19,71.06,71.06,0,0,0-3.64,19,12.51,12.51,0,0,0,2.14,7.08q2.15,3.21,7.08,3.21a50.26,50.26,0,0,0,26.59-7.72,111.24,111.24,0,0,0,23.37-19.19A185.41,185.41,0,0,0,457.24,400q8.68-13.18,14.48-24.13a111.66,111.66,0,0,0,7.18-15.65,140.37,140.37,0,0,1,6.75-15.44A46.59,46.59,0,0,1,494,332.94a16,16,0,0,1,11.79-4.72q7.72,0,12.23,4.93a16.9,16.9,0,0,1,4.5,11.79q0,3.87-2.9,10.62T512.35,371q-4.39,8.69-9.54,18.55t-9.54,20.05A179,179,0,0,0,486,429.54a64,64,0,0,0-2.9,18.12q0,7.72,9.44,7.72,6.64,0,16.51-3.86a117.94,117.94,0,0,0,20.69-10.83A182.67,182.67,0,0,0,549.43,426q1.46-3.09,3-6.28,5.9-12.33,11.79-24.45t11.26-22.84q5.35-10.71,8.79-18.22,4.29-9.23,10.73-13.73t12.65-4.5a13.26,13.26,0,0,1,9.22,3.75c2.71,2.5,4.07,6.19,4.07,11a29.58,29.58,0,0,1-3,12.87,66.53,66.53,0,0,1,13.51-12.33,125.1,125.1,0,0,1,19.41-11.36,141.11,141.11,0,0,1,21.87-8.26,77.58,77.58,0,0,1,21.34-3.22q11.36,0,19,5.47t7.61,18.55a59.23,59.23,0,0,1-2.36,16.08,121.19,121.19,0,0,1-6.11,16.73q-3.75,8.37-8.36,16.4t-9.12,15.12q-4.5,7.08-8.25,13t-5.9,9.75a12.24,12.24,0,0,0-2.79,7.94,4.58,4.58,0,0,0,1.07,3,4.22,4.22,0,0,0,3.43,1.29,21.55,21.55,0,0,0,3.43-.32,12.59,12.59,0,0,0,4.72-2.26,193.9,193.9,0,0,0,23.7-10.72q12.1-6.44,23.27-13.62t20.47-14.36q9.33-7.18,15.55-13a11.32,11.32,0,0,1,3.43-2.14,9.2,9.2,0,0,1,3.22-.64,6.65,6.65,0,0,1,5.68,2.78A11.68,11.68,0,0,1,787.76,404.56Z"/><path class="cls-9" d="M288.54,316.42a100.12,100.12,0,0,1-15,12.37c5.23-3.76,27.3-20.77,37-47.16h0l.81-.44c-.9,2.51-1.95,5-3.15,7.58A98.25,98.25,0,0,1,288.54,316.42Z"/><path class="cls-9" d="M362.83,252.79v6.43c-.09-2.1-.24-4.16-.47-6.18Z"/><path class="cls-10" d="M362.5,257.38c0,45.08-71.5,73.06-90.56,73.06,0,0,42.72-28.22,42.72-73.31,0-18.42-25.66-31.55-64.33-31.55C158.33,225.58,3.66,312,3.66,312S114.78,181.8,250.78,181.8C307.66,181.8,362.5,205.4,362.5,257.38Z"/><path d="M135,520.92a18.82,18.82,0,0,1,8.48,5.76,13.66,13.66,0,0,1,3,8.8,14,14,0,0,1-3.05,9,15.23,15.23,0,0,1-8.29,5.25,16.16,16.16,0,0,1,9.89,5.71,16.87,16.87,0,0,1,3.6,10.87,15.84,15.84,0,0,1-3.09,9.7,19.25,19.25,0,0,1-8.8,6.37,37.37,37.37,0,0,1-13.4,2.2H91V518.9h31.19A37.1,37.1,0,0,1,135,520.92Zm-8.19,22.38a6,6,0,0,0,2.06-4.82,5.61,5.61,0,0,0-2.06-4.64,8.46,8.46,0,0,0-5.62-1.54H108.11V545h13.12A8.45,8.45,0,0,0,126.85,543.3Zm1.5,26.09a6.1,6.1,0,0,0,2.62-5.24,5.73,5.73,0,0,0-2.62-4.92,11.77,11.77,0,0,0-7.12-1.73H108.11v13.77h13.12A12,12,0,0,0,128.35,569.39Z"/><path d="M206.28,584.57,201.78,573H173.4l-4.59,11.62H151.2l28.2-65.67H197l27.54,65.67Zm-27.73-24.73h18.18l-9-23.42Z"/><path d="M269.88,584.57l-9.55-18.18H247.59v18.18H230.45V518.9H260q13,0,20.19,6t7.17,17a25.86,25.86,0,0,1-3,12.78,20.75,20.75,0,0,1-8.71,8.39l13.67,21.45Zm-22.29-31.85h12.46c3.49,0,6.19-.88,8.1-2.62s2.86-4.28,2.86-7.59-.95-5.64-2.86-7.36-4.61-2.57-8.1-2.57H247.59Z"/><path d="M343.14,518.9h15.92v65.67h-15l-29.79-39.25v39.25h-16V518.9h15.08l29.88,39.53Z"/><path d="M405.94,533.61a33,33,0,0,0-10-2,9.19,9.19,0,0,0-5,1.17,3.81,3.81,0,0,0-1.83,3.42,4.69,4.69,0,0,0,1.59,3.61,12.12,12.12,0,0,0,3.94,2.34c1.56.59,3.87,1.36,6.93,2.29a91.92,91.92,0,0,1,11.29,3.94,19.7,19.7,0,0,1,7.63,6q3.18,4.08,3.19,10.63a18.17,18.17,0,0,1-3.47,11.2,21,21,0,0,1-9.51,7,37,37,0,0,1-13.44,2.34A48.7,48.7,0,0,1,381,582.74a44.39,44.39,0,0,1-14-7.82l6.65-13.4a41.43,41.43,0,0,0,11.76,7.22,32.17,32.17,0,0,0,12,2.81,11.13,11.13,0,0,0,6-1.41,4.58,4.58,0,0,0,2.2-4.12,4.88,4.88,0,0,0-1.64-3.75,12.15,12.15,0,0,0-4.12-2.39c-1.66-.59-4-1.29-7-2.1a86.35,86.35,0,0,1-11.15-3.8,19.74,19.74,0,0,1-7.54-5.8q-3.13-3.9-3.13-10.36a18,18,0,0,1,3.23-10.67,20.57,20.57,0,0,1,9.18-7.08,35.72,35.72,0,0,1,13.81-2.48,50.18,50.18,0,0,1,14.05,2A46.51,46.51,0,0,1,423.6,525l-6.46,13.68A57.57,57.57,0,0,0,405.94,533.61Z"/><path d="M496.67,551h14.8v26.14a44.13,44.13,0,0,1-12.88,6.23,48.65,48.65,0,0,1-14.48,2.38,36.27,36.27,0,0,1-17.94-4.45,32.88,32.88,0,0,1-12.6-12.22A33.6,33.6,0,0,1,449,551.69a32.46,32.46,0,0,1,4.72-17.28,33.24,33.24,0,0,1,13-12.14,38.85,38.85,0,0,1,18.5-4.4,42.31,42.31,0,0,1,14.61,2.67,37.94,37.94,0,0,1,12.36,7.17l-9.74,12a27.21,27.21,0,0,0-8.19-5.34,23.31,23.31,0,0,0-9.14-2,18,18,0,0,0-9.46,2.53,18.23,18.23,0,0,0-6.65,6.93,20,20,0,0,0-2.43,9.84,20.44,20.44,0,0,0,2.43,10,17.77,17.77,0,0,0,6.75,7,18.46,18.46,0,0,0,9.55,2.53q5,0,11.34-3.18Z"/><path d="M562.24,584.57l-9.56-18.18H539.94v18.18H522.8V518.9h29.51q13,0,20.18,6t7.17,17a25.86,25.86,0,0,1-3,12.78,20.75,20.75,0,0,1-8.71,8.39l13.68,21.45Zm-22.3-31.85H552.4c3.5,0,6.2-.88,8.1-2.62s2.86-4.28,2.86-7.59-1-5.64-2.86-7.36-4.6-2.57-8.1-2.57H539.94Z"/><path d="M590.62,518.9h51.8v13.68H607.76v12.27h31.29v13.58l-31.29.1v12.36h35.6v13.68H590.62Z"/><path d="M653.85,518.9h51.8v13.68H671v12.27h31.29v13.58l-31.29.1v12.36h35.6v13.68H653.85Z"/><path d="M762,518.9h15.92v65.67h-15l-29.79-39.25v39.25h-16V518.9h15.08L762,558.43Z"/><rect class="cls-8" x="90.97" y="613.98" width="686.9" height="173.78"/><path class="cls-11" d="M278.09,762.47l18.75-86c-6.34,1.29-16,1.44-19.52,1.31L282.5,655c13.93-1.43,25.69-7.62,31.7-12.74h22.73L311.35,762.47Z"/><path class="cls-11" d="M445.08,682.58c0,31.08-13.46,82.2-60.09,82.2-28.23,0-40.81-17.43-40.81-42.45,0-31.71,15.29-82.35,60.25-82.35C431.73,640,445.08,657.31,445.08,682.58ZM379.3,716.13c-2.05,16.4-.23,25.12,7.79,25.12,15.65,0,21.31-34.22,23.23-53.66,2-16.26.43-24.14-7.92-24.14C388.32,663.45,381.48,690.5,379.3,716.13Z"/><path class="cls-11" d="M477.18,637H511.8l-11,51.67c10.77-12.52,33.66-34.81,49.37-51.67h41.38L535.42,689.9l31.79,72.57H529.57l-20.66-52.13L493.54,723.1l-8.23,39.37H450.57Z"/><rect class="cls-9" width="787.76" height="787.76"/></g></g></svg>