<?xml version="1.0" encoding="utf-8"?>
<!-- Generator: Adobe Illustrator 19.0.0, SVG Export Plug-In . SVG Version: 6.00 Build 0)  -->
<svg version="1.1" id="Layer_1" xmlns="http://www.w3.org/2000/svg" xmlns:xlink="http://www.w3.org/1999/xlink" x="0px" y="0px"
	 viewBox="0 0 200 50" style="enable-background:new 0 0 200 50;" xml:space="preserve">
<style type="text/css">
	g {fill:#fff}
	.st0{fill:#76BD1D;}
</style>
<g id="XMLID_4_">
	<g id="XMLID_11_">
		<path id="XMLID_12_" d="M67.2,22.4c-1.5-0.4-2.7-0.8-3.7-1.4l2.1-4.7c0.9,0.5,1.9,1,3.1,1.3c1.1,0.3,2.2,0.5,3.3,0.5
			c0.9,0,1.5-0.1,1.9-0.3c0.4-0.2,0.6-0.4,0.6-0.8c0-0.4-0.3-0.7-0.8-0.9c-0.5-0.2-1.3-0.4-2.5-0.7c-1.5-0.3-2.7-0.6-3.7-1
			c-1-0.4-1.8-0.9-2.6-1.8c-0.7-0.8-1.1-1.9-1.1-3.3c0-1.2,0.3-2.3,1-3.3c0.7-1,1.7-1.8,3-2.3c1.3-0.6,3-0.9,4.9-0.9
			c1.3,0,2.6,0.1,3.9,0.4C77.8,3.6,79,4,79.9,4.6L78,9.2c-1.9-1-3.7-1.4-5.3-1.4c-1.7,0-2.5,0.4-2.5,1.2c0,0.4,0.2,0.7,0.7,0.9
			s1.3,0.4,2.4,0.6c1.5,0.3,2.7,0.6,3.7,0.9c1,0.4,1.9,0.9,2.6,1.7c0.7,0.8,1.1,1.9,1.1,3.3c0,1.2-0.3,2.3-1,3.3
			c-0.7,1-1.7,1.8-3,2.3c-1.3,0.6-3,0.9-4.9,0.9C70.2,23,68.7,22.8,67.2,22.4z"/>
		<path id="XMLID_14_" d="M96.6,4.2c1.3,0.6,2.3,1.4,3,2.5c0.7,1.1,1.1,2.4,1.1,3.8s-0.4,2.7-1.1,3.8c-0.7,1.1-1.7,1.9-3,2.5
			c-1.3,0.6-2.9,0.9-4.6,0.9h-2.8v4.7h-6.5V3.3h9.2C93.7,3.3,95.3,3.6,96.6,4.2z M93.5,12.2c0.4-0.4,0.7-0.9,0.7-1.7
			s-0.2-1.3-0.7-1.7c-0.4-0.4-1.1-0.6-2-0.6h-2.4v4.5h2.4C92.4,12.8,93.1,12.6,93.5,12.2z"/>
		<path id="XMLID_17_" d="M107.6,21.7c-1.6-0.9-2.9-2.1-3.9-3.6c-0.9-1.5-1.4-3.2-1.4-5.2c0-1.9,0.5-3.6,1.4-5.2
			c0.9-1.5,2.2-2.7,3.9-3.6c1.6-0.9,3.5-1.3,5.6-1.3c2.1,0,3.9,0.4,5.6,1.3c1.6,0.9,2.9,2.1,3.9,3.6s1.4,3.3,1.4,5.2
			c0,1.9-0.5,3.6-1.4,5.2c-0.9,1.5-2.2,2.7-3.9,3.6c-1.6,0.9-3.5,1.3-5.6,1.3C111.1,23,109.2,22.5,107.6,21.7z M115.3,17.1
			c0.6-0.4,1.2-1,1.5-1.7c0.4-0.7,0.6-1.6,0.6-2.5s-0.2-1.8-0.6-2.5c-0.4-0.7-0.9-1.3-1.5-1.7s-1.4-0.6-2.2-0.6
			c-0.8,0-1.5,0.2-2.2,0.6s-1.2,1-1.5,1.7c-0.4,0.7-0.6,1.6-0.6,2.5s0.2,1.8,0.6,2.5c0.4,0.7,0.9,1.3,1.5,1.7s1.4,0.6,2.2,0.6
			C114,17.7,114.7,17.5,115.3,17.1z"/>
		<path id="XMLID_23_" d="M134.6,17.7h-1.8v4.8h-6.5V3.3h9.2c1.8,0,3.3,0.3,4.6,0.9c1.3,0.6,2.3,1.4,3,2.5c0.7,1.1,1.1,2.4,1.1,3.8
			c0,1.4-0.3,2.6-0.9,3.6c-0.6,1-1.5,1.8-2.7,2.4l4,5.9h-6.9L134.6,17.7z M137.2,8.9c-0.4-0.4-1.1-0.6-2-0.6h-2.4v4.5h2.4
			c0.9,0,1.5-0.2,2-0.6s0.7-0.9,0.7-1.7S137.6,9.3,137.2,8.9z"/>
		<path id="XMLID_26_" d="M150.7,8.3h-5.6v-5h17.7v5h-5.6v14.2h-6.5V8.3z"/>
		<path id="XMLID_28_" d="M67.2,46.4c-1.5-0.4-2.7-0.8-3.7-1.4l2.1-4.7c0.9,0.5,1.9,1,3.1,1.3c1.1,0.3,2.2,0.5,3.3,0.5
			c0.9,0,1.5-0.1,1.9-0.3c0.4-0.2,0.6-0.4,0.6-0.8c0-0.4-0.3-0.7-0.8-0.9c-0.5-0.2-1.3-0.4-2.5-0.7c-1.5-0.3-2.7-0.6-3.7-1
			c-1-0.4-1.8-0.9-2.6-1.8c-0.7-0.8-1.1-1.9-1.1-3.3c0-1.2,0.3-2.3,1-3.3c0.7-1,1.7-1.8,3-2.3c1.3-0.6,3-0.9,4.9-0.9
			c1.3,0,2.6,0.1,3.9,0.4c1.3,0.3,2.4,0.7,3.4,1.2L78,33.2c-1.9-1-3.7-1.4-5.3-1.4c-1.7,0-2.5,0.4-2.5,1.2c0,0.4,0.2,0.7,0.7,0.9
			c0.5,0.2,1.3,0.4,2.4,0.6c1.5,0.3,2.7,0.6,3.7,0.9c1,0.4,1.9,0.9,2.6,1.7c0.7,0.8,1.1,1.9,1.1,3.3c0,1.2-0.3,2.3-1,3.3
			c-0.7,1-1.7,1.8-3,2.3c-1.3,0.6-3,0.9-4.9,0.9C70.2,46.9,68.7,46.8,67.2,46.4z"/>
		<path id="XMLID_30_" d="M93.7,39.5v7h-6.5v-7L80,27.3h6.8l3.9,6.6l3.9-6.6h6.3L93.7,39.5z"/>
		<path id="XMLID_32_" d="M103.9,46.4c-1.5-0.4-2.7-0.8-3.7-1.4l2.1-4.7c0.9,0.5,1.9,1,3.1,1.3c1.1,0.3,2.2,0.5,3.3,0.5
			c0.9,0,1.5-0.1,1.9-0.3c0.4-0.2,0.6-0.4,0.6-0.8c0-0.4-0.3-0.7-0.8-0.9c-0.5-0.2-1.3-0.4-2.5-0.7c-1.5-0.3-2.7-0.6-3.7-1
			c-1-0.4-1.8-0.9-2.6-1.8c-0.7-0.8-1.1-1.9-1.1-3.3c0-1.2,0.3-2.3,1-3.3c0.7-1,1.7-1.8,3-2.3c1.3-0.6,3-0.9,4.9-0.9
			c1.3,0,2.6,0.1,3.9,0.4c1.3,0.3,2.4,0.7,3.4,1.2l-1.9,4.7c-1.9-1-3.7-1.4-5.3-1.4c-1.7,0-2.5,0.4-2.5,1.2c0,0.4,0.2,0.7,0.7,0.9
			c0.5,0.2,1.3,0.4,2.4,0.6c1.5,0.3,2.7,0.6,3.7,0.9c1,0.4,1.9,0.9,2.6,1.7c0.7,0.8,1.1,1.9,1.1,3.3c0,1.2-0.3,2.3-1,3.3
			c-0.7,1-1.7,1.8-3,2.3c-1.3,0.6-3,0.9-4.9,0.9C106.9,46.9,105.4,46.8,103.9,46.4z"/>
		<path id="XMLID_34_" d="M123.3,32.3h-5.6v-5h17.7v5h-5.6v14.2h-6.5V32.3z"/>
		<path id="XMLID_36_" d="M153.1,41.6v4.9h-16V27.3h15.6v4.9h-9.2v2.2h8.1v4.7h-8.1v2.5H153.1z"/>
		<path id="XMLID_38_" d="M172.7,46.5l-0.1-8.7l-4.2,7h-2.9l-4.2-6.7v8.4h-5.9V27.3h5.3l6.3,10.2l6.1-10.2h5.3l0.1,19.2H172.7z"/>
		<path id="XMLID_40_" d="M184.3,46.4c-1.5-0.4-2.7-0.8-3.7-1.4l2.1-4.7c0.9,0.5,1.9,1,3.1,1.3c1.1,0.3,2.2,0.5,3.3,0.5
			c0.9,0,1.5-0.1,1.9-0.3c0.4-0.2,0.6-0.4,0.6-0.8c0-0.4-0.3-0.7-0.8-0.9c-0.5-0.2-1.3-0.4-2.5-0.7c-1.5-0.3-2.7-0.6-3.7-1
			c-1-0.4-1.8-0.9-2.6-1.8c-0.7-0.8-1.1-1.9-1.1-3.3c0-1.2,0.3-2.3,1-3.3c0.7-1,1.7-1.8,3-2.3c1.3-0.6,3-0.9,4.9-0.9
			c1.3,0,2.6,0.1,3.9,0.4c1.3,0.3,2.4,0.7,3.4,1.2l-1.9,4.7c-1.9-1-3.7-1.4-5.3-1.4c-1.7,0-2.5,0.4-2.5,1.2c0,0.4,0.2,0.7,0.7,0.9
			c0.5,0.2,1.3,0.4,2.4,0.6c1.5,0.3,2.7,0.6,3.7,0.9c1,0.4,1.9,0.9,2.6,1.7c0.7,0.8,1.1,1.9,1.1,3.3c0,1.2-0.3,2.3-1,3.3
			c-0.7,1-1.7,1.8-3,2.3c-1.3,0.6-3,0.9-4.9,0.9C187.3,46.9,185.8,46.8,184.3,46.4z"/>
	</g>
	<g id="XMLID_8_">
		<g id="XMLID_10_">
			<path id="XMLID_18_" d="M38.7,20.2l-3.1,3.1c0.7,1.8,1.1,3.7,1.1,5.7c0,8.4-6.9,15.3-15.3,15.3C13,44.3,6.1,37.4,6.1,29
				c0-8.5,6.9-15.3,15.3-15.3c3.3,0,6.3,1,8.8,2.8l2.9-2.9c-3.3-2.5-7.3-4-11.7-4c-10.7,0-19.3,8.7-19.3,19.3s8.7,19.3,19.3,19.3
				c10.7,0,19.3-8.7,19.3-19.3C40.8,25.7,40.1,22.8,38.7,20.2z"/>
			<rect id="XMLID_5_" x="16.6" y="2" width="9.2" height="4.9"/>
		</g>
		<polygon id="XMLID_22_" class="st0" points="41.9,14 21.2,34.7 21.2,34.7 21.2,34.7 11.9,25.4 14.9,22.4 21.2,28.7 38.9,11 		"/>
	</g>
	<rect id="XMLID_45_" x="51.6" y="3.2" width="1.1" height="44"/>
</g>
</svg>
